<svg width="261" height="247" viewBox="0 0 261 247" fill="none" xmlns="http://www.w3.org/2000/svg">
<path d="M200.396 6.36333C142.229 16.3446 61.4118 35.7628 27.1642 47.9219C20.2784 50.2811 19.916 50.2811 18.8288 46.833C17.1979 41.9331 11.7618 43.2034 11.037 48.4663C10.6746 50.644 8.1377 53.7292 5.05723 55.181C-1.46613 58.6291 -1.64733 61.1698 4.33241 62.6216L8.86252 63.7105V98.5543C8.86252 145.557 10.3122 170.783 14.4799 197.641C19.1912 228.13 18.6476 226.678 27.3454 226.678H34.7748L33.6875 218.874C33.1439 214.7 31.5131 203.812 29.8822 194.919C28.2514 185.845 26.6206 175.683 26.2581 172.234C24.6273 159.35 21.0032 63.3475 21.9092 62.2586C22.4529 61.7142 31.5131 59.355 41.8417 56.8143C51.9892 54.4551 69.566 50.2811 80.4383 47.7404C130.994 35.9443 225.945 17.9779 238.086 17.9779C242.616 17.9779 242.616 18.1594 241.348 28.3222C240.623 34.1295 240.079 78.5917 239.898 127.228V215.608L225.402 216.515C217.429 217.06 193.872 218.33 173.034 219.419C132.263 221.597 102.726 224.5 62.3178 230.489C31.8755 234.845 23.3589 237.022 23.3589 240.107C23.3589 247.729 44.9222 248.274 98.5587 242.285C131.538 238.474 168.866 235.933 209.093 234.845C261.28 233.211 260.737 233.393 260.737 221.052C260.737 217.604 259.831 215.789 258.019 215.789C256.025 215.789 255.301 213.793 255.301 208.712C255.301 198.186 251.858 120.15 250.77 109.624C250.408 104.543 249.502 80.0435 248.777 55.181C247.69 7.63368 246.421 -0.35137 239.898 0.0115863C237.905 0.0115863 220.147 2.91524 200.396 6.36333Z" fill="#2CF87A"/>
<path d="M55.7437 81.2636C55.7437 89.7312 78.9725 113.873 97.3015 124.322L107.283 130.087L102.746 132.79C89.4981 141.437 72.8023 161.075 69.3543 172.245C68.084 176.569 72.4394 183.415 76.4318 183.415C77.5207 183.415 81.3317 178.01 84.7797 171.164C88.5907 163.777 96.0312 154.049 104.198 145.941C117.082 132.79 117.445 132.61 124.523 133.871C132.145 135.132 132.689 134.771 134.504 127.205C136.137 120.539 132.326 117.476 120.712 116.215C106.012 114.413 82.4205 102.162 69.7172 89.3709C59.0102 78.9215 55.7437 76.9398 55.7437 81.2636Z" fill="white"/>
<path d="M175.766 165.4C145.809 167.628 129.469 170.413 129.469 173.755C129.469 177.839 135.461 178.396 170.138 177.839L202.637 177.282L204.453 171.898C206.087 166.7 203.908 162.987 199.369 163.73C198.461 163.73 187.749 164.658 175.766 165.4Z" fill="white"/>
</svg>
