<svg width="682" height="141" viewBox="0 0 682 141" fill="none" xmlns="http://www.w3.org/2000/svg">
<path d="M558.943 35.9064C570.876 35.9065 581.337 39.7605 589.287 46.88C596.978 53.7681 602.116 63.5277 604.094 75.2872L604.277 76.4327L604.291 76.5343L604.301 76.6378C604.467 78.4564 605.166 85.2935 605.513 89.9894L605.8 93.8527H533.075C533.722 102.011 535.234 106.801 538.304 111.251L539.035 112.266L539.066 112.308C543.851 118.886 551.18 122.565 560.497 122.566C566.881 122.566 572.031 120.997 576.087 118.115C580.147 115.231 583.382 110.838 585.601 104.736L586.869 101.247L605.89 108.854L604.342 112.28C600.909 119.867 598.431 123.35 594.113 127.668L594.085 127.696C585.238 136.354 573.777 140.805 560.325 140.805C545.89 140.805 533.822 135.722 525.395 126.394C517.005 117.106 512.536 103.958 512.536 88.3556C512.536 72.9267 516.962 59.8067 525.123 50.4904C533.324 41.1279 545.043 35.9065 558.943 35.9064ZM341.389 37.6544C353.228 34.5371 363.767 34.7363 372.25 39.0363C377.948 41.7681 381.654 45.2974 385.741 51.9083L386.569 53.2794L388.615 56.7443L369.217 65.421L367.659 62.3976C366.59 60.3241 365.844 59.1 365.116 58.2179C364.531 57.5097 363.898 56.9494 362.962 56.3615L362.541 56.1075L362.474 56.0685L362.413 56.0284C358.584 53.5766 353.124 52.8925 346.236 54.7062C340.693 56.1659 336.604 58.7497 334.193 61.6652C331.833 64.5195 331.057 67.6763 331.887 70.8312C332.543 73.3208 334.363 75.202 337.364 75.9425L337.391 75.9484L337.417 75.9552C340.757 76.833 344.383 77.122 352.553 76.8087L356.345 76.6388L356.375 76.6368L356.403 76.6359C372.465 76.0822 379.273 76.517 385.685 78.9288L386.966 79.4376L387.007 79.4562L387.046 79.4728C394.392 82.7638 399.582 89.2831 401.638 97.0909C404.129 106.55 402.105 115.429 396.206 122.68C390.401 129.815 381.044 135.153 369.139 138.288C353.886 142.305 340.034 141.267 330.384 133.999L329.464 133.276L329.452 133.268L329.443 133.259C325.518 129.999 323.34 127.023 319.763 120.425L317.926 117.034L337.727 108.033L339.246 111.224C340.598 114.062 341.673 115.87 342.777 117.184C343.826 118.431 344.995 119.343 346.696 120.219L346.715 120.229L346.732 120.238C350.796 122.386 356.964 122.808 365.039 120.682C371.866 118.884 376.652 116.062 379.409 112.916C382.064 109.886 382.929 106.488 381.961 102.809C381.037 99.3 379.352 97.3988 376.972 96.5099L376.486 96.3458L376.471 96.34C373.011 95.2654 370.305 94.9836 360.918 95.4347L356.465 95.674L356.447 95.6749L356.43 95.6759C343.117 96.3168 336.323 95.9406 329.453 93.7618L328.075 93.3029L328.053 93.295C319.989 90.4097 314.379 84.1094 312.157 75.671C310.307 68.6469 311.521 61.3162 315.468 54.8146C320.456 46.539 329.644 40.7475 341.389 37.6544ZM432.819 4.172C431.821 10.3281 431.484 14.6194 431.484 23.2765V49.382C432.395 48.4618 433.4 47.5474 434.562 46.5792C442.655 39.6311 451.429 36.424 462.759 36.424C473.562 36.4242 482.632 39.6234 489.007 45.9484C495.385 52.2775 498.635 61.3115 498.635 72.129V115.458C498.635 122.28 498.893 126.842 499.52 132.037L499.811 134.311L500.363 138.389H476.53L477.155 134.253C477.983 128.789 478.323 123.801 478.323 115.286V74.546C478.323 67.5834 476.602 62.7895 473.861 59.7638C471.171 56.7952 467.028 55.0101 461.033 55.0099C452.613 55.0099 445.655 58.5293 439.506 66.256C435.076 71.9574 433.081 76.0798 431.658 82.5363V115.286L431.674 117.973C431.739 123.15 432.004 127.245 432.543 131.933L432.837 134.335L433.356 138.389H409.774L410.343 134.297C411.181 128.269 411.518 123.775 411.518 115.286V23.1027C411.518 14.6208 411.181 10.2929 410.342 4.07727L409.79 0.00012207H433.497L432.819 4.172ZM641.03 4.09192C640.193 10.1199 639.857 14.6139 639.857 23.1027V115.458L639.873 118.176C639.948 124.228 640.297 128.423 641.038 134.346L641.543 138.389H617.801L618.371 134.297C619.207 128.275 619.546 123.091 619.546 115.458V22.9308C619.546 15.656 619.287 11.3056 618.662 6.29211L618.371 4.09192L617.801 0.00012207H641.599L641.03 4.09192ZM681.152 4.09192C680.315 10.1199 679.979 14.6139 679.979 23.1027V115.458L679.995 118.176C680.07 124.228 680.42 128.423 681.16 134.346L681.665 138.389H657.924L658.493 134.297C659.329 128.275 659.668 123.091 659.668 115.458V22.9308C659.668 15.656 659.409 11.3056 658.784 6.29211L658.493 4.09192L657.924 0.00012207H681.721L681.152 4.09192ZM559.062 137.196L560.311 137.208C559.472 137.208 558.641 137.191 557.821 137.154C558.232 137.173 558.646 137.187 559.062 137.196ZM383.487 128.681C379.199 131.193 374.085 133.266 368.222 134.81C367.832 134.912 367.443 135.01 367.055 135.106L368.223 134.811C374.086 133.267 379.199 131.193 383.487 128.681ZM495.816 131.318C495.943 132.446 496.086 133.595 496.248 134.792H496.249C496.087 133.595 495.943 132.445 495.816 131.317V131.318ZM326.934 125.368C328.419 127.45 329.85 128.923 331.74 130.493C332.225 130.89 332.726 131.269 333.241 131.63L332.731 131.263C332.395 131.014 332.065 130.757 331.741 130.492C329.851 128.922 328.419 127.449 326.934 125.368ZM589.876 126.693C590.006 126.578 590.136 126.462 590.265 126.346C590.136 126.463 590.006 126.578 589.876 126.693ZM591.309 125.373C591.001 125.67 590.688 125.96 590.373 126.247C590.516 126.118 590.661 125.991 590.802 125.859L591.309 125.373ZM388.904 124.92C388.69 125.096 388.474 125.272 388.254 125.445L388.905 124.92C389.119 124.744 389.329 124.565 389.537 124.386L388.904 124.92ZM393.93 119.759C394.072 119.574 394.211 119.389 394.346 119.202C394.211 119.389 394.072 119.574 393.93 119.759ZM636.311 18.049C636.278 19.5878 636.26 21.2546 636.26 23.1036V115.458C636.26 116.364 636.265 117.228 636.275 118.058L636.261 115.458V23.1027C636.261 21.2541 636.278 19.5876 636.311 18.049ZM676.496 15.8312C676.418 17.9677 676.383 20.3307 676.383 23.1036V115.458C676.383 116.364 676.387 117.228 676.397 118.058L676.384 115.458V23.1027C676.384 21.2541 676.4 19.5876 676.433 18.049C676.45 17.2797 676.471 16.5423 676.497 15.8302L676.496 15.8312ZM428.825 79.0001C428.55 79.9972 428.296 81.0394 428.06 82.1417V115.286C428.06 116.235 428.066 117.147 428.077 118.028L428.061 115.286V82.1407C428.297 81.0389 428.55 79.9969 428.825 79.0001ZM583.766 115.651C583.649 115.802 583.531 115.952 583.411 116.1L583.766 115.652C583.884 115.502 584 115.349 584.115 115.194L583.766 115.651ZM585.44 113.269C585.334 113.435 585.228 113.601 585.12 113.765L585.441 113.269C585.547 113.102 585.651 112.934 585.755 112.764L585.44 113.269ZM601.064 110.798C600.697 111.61 600.342 112.37 599.996 113.085L600.522 111.978C600.7 111.597 600.881 111.204 601.065 110.798L588.98 105.964L601.064 110.798ZM588.512 107.191C588.432 107.392 588.351 107.593 588.268 107.791L588.513 107.192C588.594 106.99 588.672 106.787 588.75 106.582L588.512 107.191ZM377.537 92.9054C377.566 92.9142 377.594 92.9238 377.623 92.9327C377.594 92.9239 377.566 92.9141 377.538 92.9054C377.45 92.8783 377.363 92.8535 377.276 92.8273C377.363 92.8534 377.45 92.8784 377.537 92.9054ZM370.598 91.6954L370.027 91.67C370.001 91.669 369.974 91.6681 369.948 91.6671C370.17 91.6752 370.387 91.6846 370.598 91.6954ZM327.313 89.1075C327.943 89.4015 328.594 89.6693 329.264 89.9093C329.781 90.0906 330.296 90.2594 330.811 90.4191C330.296 90.2594 329.781 90.0897 329.264 89.9083C328.594 89.6684 327.943 89.4012 327.313 89.1075ZM516.144 89.7482C516.146 89.8287 516.149 89.909 516.151 89.9894C516.148 89.8483 516.144 89.7071 516.142 89.5656C516.143 89.6263 516.143 89.6875 516.144 89.7482ZM385.576 82.756C385.667 82.7969 385.758 82.8399 385.848 82.882C385.758 82.84 385.668 82.7968 385.577 82.756C385.495 82.7217 385.413 82.689 385.331 82.6554C385.412 82.6888 385.494 82.7219 385.576 82.756ZM335.436 79.1222C335.781 79.2393 336.137 79.3435 336.503 79.4337C336.779 79.5062 337.056 79.5748 337.336 79.6398C337.056 79.5748 336.779 79.5061 336.504 79.4337C336.138 79.3434 335.782 79.2393 335.436 79.1222ZM430.107 75.0968C429.874 75.6959 429.656 76.3061 429.449 76.9318C429.656 76.3061 429.874 75.6958 430.107 75.0968ZM558.598 53.9757C549.446 53.9758 541.833 58.5516 537.256 67.0958L537.24 67.1251L537.222 67.1554C535.631 69.998 534.798 72.1937 534.059 75.7843H583.977C582.772 69.025 580.478 64.6161 576.467 60.7296C571.857 56.2692 566.053 53.9758 558.598 53.9757ZM430.884 73.254C430.621 73.8306 430.375 74.414 430.142 75.0079C430.375 74.414 430.621 73.8305 430.884 73.254ZM481.88 72.6906C481.906 73.2967 481.92 73.9154 481.92 74.546L481.915 73.8468C481.909 73.4566 481.896 73.0711 481.88 72.6906ZM432.232 70.5978C431.949 71.1045 431.68 71.6113 431.426 72.1212C431.68 71.6114 431.948 71.1045 432.232 70.5978ZM433.186 68.9825C432.863 69.5016 432.557 70.0176 432.267 70.5333C432.557 70.0178 432.863 69.5023 433.186 68.9835V68.9825ZM436.692 64.0157C436.39 64.4043 436.098 64.7876 435.816 65.1652C436.098 64.7879 436.39 64.4051 436.692 64.0167C436.722 63.979 436.753 63.942 436.783 63.9044C436.753 63.9418 436.722 63.9782 436.692 64.0157ZM534.582 64.5031C534.497 64.6501 534.413 64.7982 534.331 64.9474C534.413 64.7985 534.497 64.6508 534.582 64.504V64.5031ZM370.855 60.7482C370.582 60.2179 370.32 59.7258 370.068 59.2677L370.854 60.7491L383.47 55.1066L383.469 55.1046L370.855 60.7482ZM440.357 59.9542C440.382 59.9299 440.408 59.9062 440.433 59.882C440.408 59.9062 440.382 59.9299 440.357 59.9542ZM542.065 55.8214C541.943 55.9152 541.823 56.0124 541.702 56.1085C541.823 56.0125 541.943 55.9161 542.065 55.8224V55.8214ZM544.289 54.2921C544.229 54.3288 544.17 54.3662 544.11 54.4034C544.17 54.3662 544.229 54.3288 544.289 54.2921ZM340 53.0978C339.921 53.1331 339.844 53.1703 339.766 53.2062C340.006 53.0954 340.249 52.986 340.495 52.88L340 53.0978ZM546.544 53.0568C546.476 53.0893 546.409 53.1222 546.342 53.1554C546.409 53.1222 546.476 53.0893 546.544 53.0568ZM451.654 52.8898C451.481 52.9479 451.309 53.0108 451.137 53.0724C451.574 52.9157 452.015 52.7673 452.46 52.6329L451.654 52.8898ZM346.565 50.924C346.153 51.0178 345.738 51.1177 345.32 51.2277C345.034 51.3029 344.751 51.3818 344.471 51.463L345.32 51.2286L346.565 50.924ZM550.74 51.4562C550.625 51.489 550.511 51.5215 550.397 51.5558C550.511 51.5215 550.625 51.489 550.74 51.4562ZM555.99 50.4923C555.887 50.5012 555.785 50.5106 555.682 50.5206C555.785 50.5106 555.887 50.5012 555.99 50.4923ZM558.435 50.381C558.489 50.3807 558.544 50.38 558.598 50.38L559.332 50.3859C559.089 50.381 558.844 50.379 558.598 50.379C558.544 50.379 558.489 50.3807 558.435 50.381ZM451.068 41.5079C450.856 41.5676 450.646 41.6302 450.436 41.6935C450.673 41.622 450.911 41.5524 451.15 41.4855L451.068 41.5079ZM453.583 40.8956C453.298 40.9546 453.014 41.0171 452.733 41.0822L453.582 40.8966C453.867 40.8377 454.153 40.7815 454.442 40.7286L453.583 40.8956ZM548.573 40.6241C548.644 40.608 548.716 40.5941 548.788 40.5782C548.716 40.5941 548.644 40.608 548.573 40.6241ZM549.669 40.3917C549.632 40.3991 549.595 40.4068 549.558 40.4142C549.663 40.393 549.768 40.3731 549.873 40.3527C549.805 40.3659 549.737 40.3782 549.669 40.3917ZM463.634 40.0284C464.129 40.037 464.618 40.0532 465.102 40.0763C464.639 40.0542 464.171 40.0382 463.699 40.0294L463.634 40.0284ZM554.484 39.6993C553.987 39.7442 553.493 39.7987 553.004 39.8585C553.78 39.7636 554.566 39.686 555.361 39.629L554.484 39.6993ZM556.542 39.5587C556.488 39.5612 556.435 39.5648 556.382 39.5675C556.515 39.5608 556.648 39.5556 556.782 39.5499C556.702 39.5533 556.622 39.5549 556.542 39.5587ZM677.284 5.92297C677.226 6.39287 677.171 6.85748 677.119 7.31946C677.171 6.85749 677.226 6.39286 677.284 5.92297ZM429.083 4.77356C429.065 4.88986 429.048 5.00594 429.031 5.12122C429.106 4.62348 429.185 4.1163 429.269 3.5968L429.083 4.77356ZM390.743 123.292L391.246 122.803C391.268 122.78 391.29 122.757 391.312 122.734C391.125 122.921 390.936 123.108 390.743 123.292Z" fill="#2CF87A"/>
<path d="M255.07 35.9062C269.979 35.9063 282.461 40.9602 291.2 50.2441C299.917 59.5044 304.585 72.6251 304.585 88.1836C304.585 103.669 299.866 116.821 291.165 126.135C282.441 135.473 270.008 140.633 255.242 140.633C240.264 140.633 227.699 135.634 218.889 126.374C210.097 117.133 205.383 104.005 205.383 88.3555C205.383 72.7071 210.096 59.5423 218.856 50.2617C227.638 40.959 240.163 35.9063 255.07 35.9062ZM175.66 16.5811C174.837 21.8517 174.494 27.864 174.494 35.1875V38.1504H179.185C187.029 38.1504 190.471 37.9817 196.283 37.1514L200.389 36.5645V58.0322L196.236 57.3848C191.644 56.6672 187.932 56.4456 181.914 56.4014L179.185 56.3926H174.494V112.87L174.503 113.755C174.576 117.408 175.105 118.718 175.51 119.269L175.686 119.477C176.714 120.505 178.613 121.356 181.602 121.356C185.246 121.356 188.057 120.611 193.374 117.389L197.295 115.013L203.453 134.609L200.414 135.87C192.91 138.982 187.09 140.115 179.529 140.115C171.716 140.115 164.913 138.238 160.49 134.116L160.068 133.711C155.586 129.229 154.183 123.002 154.183 114.596V56.3926H150.874C145.195 56.3926 141.377 56.7228 135.771 57.4023L131.74 57.8896V36.415L135.969 37.1709C140.492 37.9786 143.7 38.1504 150.874 38.1504H154.183V35.1875C154.183 28.8097 153.883 22.8162 153.164 17.5977L153.015 16.5654L152.388 12.4297H176.309L175.66 16.5811ZM80.8535 2.85547C81.3094 5.02094 81.822 6.6323 83.8896 11.792L86.5322 18.2871L86.5361 18.2979L125.191 113.558C128.974 122.635 131.104 127.447 133.224 131.362L134.137 132.995L137.249 138.389H110.356L109.729 135.571C108.391 129.549 106.547 123.68 104.535 118.481V118.48L96.4854 98.5117H41.0947L33.0254 118.529C30.5025 124.923 29.0215 129.717 27.8652 135.498L27.2871 138.389H0L3.31055 132.929C6.60919 127.486 7.73059 125.112 12.3711 113.597L12.375 113.588L51.043 18.2979C54.3158 10.2017 55.5923 6.47731 56.3848 2.83203L57.001 0H80.2529L80.8535 2.85547ZM176.098 136.381V136.38V136.381ZM170.057 135.303C170.17 135.336 170.285 135.367 170.399 135.398C170.212 135.346 170.026 135.293 169.843 135.237C169.914 135.259 169.985 135.282 170.057 135.303ZM168.532 134.798C168.853 134.916 169.181 135.031 169.517 135.138C169.585 135.16 169.655 135.18 169.725 135.201C169.317 135.075 168.919 134.941 168.532 134.798ZM7.58594 132.777C7.21328 133.416 6.81642 134.08 6.38477 134.792H6.38672C6.81805 134.08 7.21355 133.417 7.58594 132.778V132.777ZM24.5693 133.671C24.491 134.041 24.4144 134.414 24.3389 134.792L24.8096 132.57L24.5693 133.671ZM79.3164 9.98535C80.1554 12.1844 81.3661 15.1667 83.2041 19.6514L121.872 114.94C126.187 125.297 128.431 130.304 131.021 134.792H131.021C128.432 130.304 126.189 125.297 121.873 114.939L83.2051 19.6504C81.3673 15.1662 80.1556 12.1842 79.3164 9.98535ZM166.535 133.938C166.565 133.953 166.596 133.968 166.626 133.982C166.442 133.892 166.261 133.799 166.083 133.704L166.535 133.938ZM161.916 130.417C162.138 130.675 162.369 130.926 162.611 131.168C162.989 131.546 163.396 131.903 163.831 132.243C163.397 131.903 162.99 131.545 162.612 131.167C162.37 130.925 162.138 130.675 161.916 130.417ZM199.035 132.548H199.037L195.238 120.465L199.035 132.548ZM10.0498 128.199C9.74601 128.82 9.44606 129.411 9.13867 129.993L9.62305 129.058C9.7656 128.777 9.90692 128.491 10.0498 128.199ZM26.4961 126.183C26.4639 126.288 26.4331 126.394 26.4014 126.499C26.4464 126.35 26.4911 126.2 26.5371 126.05L26.4961 126.183ZM255.977 125.806C255.676 125.812 255.374 125.815 255.07 125.815C254.767 125.815 254.465 125.812 254.165 125.806C254.465 125.812 254.767 125.816 255.07 125.816C255.374 125.816 255.676 125.812 255.977 125.806ZM255.416 53.9756C246.03 53.9756 238.783 57.2172 233.84 62.832C228.848 68.5024 225.867 76.9813 225.867 88.0117L225.876 89.0459C226.056 99.6638 229.006 107.841 233.81 113.356C238.717 118.991 245.877 122.219 255.07 122.219C264.263 122.219 271.377 118.992 276.241 113.383C281.158 107.712 284.101 99.2254 284.101 88.1836C284.101 77.1415 281.157 68.5998 276.268 62.8789C271.432 57.2224 264.403 53.9757 255.416 53.9756ZM170.906 113.779C170.91 113.967 170.915 114.151 170.921 114.332C170.915 114.151 170.911 113.967 170.907 113.779C170.902 113.488 170.898 113.187 170.898 112.877L170.906 113.779ZM209.253 94.5957C209.271 94.7978 209.291 94.9993 209.311 95.2002C209.291 94.9993 209.271 94.7978 209.253 94.5957ZM209.17 93.5781C209.187 93.8123 209.206 94.0457 209.226 94.2783C209.206 94.0457 209.187 93.8123 209.17 93.5781ZM208.991 89.748C209.015 90.9833 209.07 92.199 209.155 93.3945C209.064 92.1165 209.009 90.8155 208.988 89.4922L208.991 89.748ZM68.7158 26.1348C68.5722 26.5531 68.416 26.9768 68.2588 27.3379L48.0625 79.4082H89.502L69.1514 27.3467L69.1338 27.3008C68.9836 26.9002 68.8707 26.585 68.7158 26.1348ZM211.838 69.2539C211.588 70.0138 211.355 70.7867 211.137 71.5713V71.5723C211.355 70.7877 211.588 70.0148 211.838 69.2549V69.2539ZM227.292 65.9541C227.185 66.1487 227.079 66.345 226.975 66.543C227.079 66.345 227.185 66.1488 227.292 65.9541ZM227.762 65.1299C227.63 65.3534 227.5 65.5795 227.373 65.8076C227.5 65.5794 227.63 65.3534 227.762 65.1299ZM229.492 62.5127C229.443 62.5796 229.392 62.6455 229.344 62.7129C229.392 62.6455 229.443 62.5796 229.492 62.5127ZM295.479 62.6553C295.395 62.4853 295.308 62.3168 295.222 62.1484C295.308 62.3167 295.395 62.4854 295.479 62.6553ZM230.026 61.8066C229.98 61.8659 229.934 61.9247 229.888 61.9844C229.933 61.9247 229.98 61.8659 230.026 61.8066ZM295.104 61.9219C295.065 61.8462 295.027 61.7696 294.987 61.6943C294.958 61.6387 294.926 61.5838 294.896 61.5283C294.966 61.659 295.036 61.7902 295.104 61.9219ZM230.572 61.125C230.528 61.179 230.484 61.2338 230.439 61.2881C230.484 61.2337 230.528 61.179 230.572 61.125ZM231.867 59.665C231.813 59.722 231.759 59.7785 231.705 59.8359C231.759 59.7785 231.813 59.722 231.867 59.665ZM232.47 59.0488C232.419 59.0991 232.369 59.1495 232.318 59.2002C232.369 59.1495 232.419 59.0991 232.47 59.0488ZM235.229 56.6426C235.183 56.677 235.139 56.7114 235.094 56.7461C235.139 56.7114 235.183 56.677 235.229 56.6426ZM196.793 40.7109C195.676 40.8705 194.642 41.0067 193.647 41.1221C194.641 41.0069 195.676 40.8714 196.792 40.7119V53.8311C194.243 53.4328 191.951 53.1816 189.459 53.0264C191.952 53.1818 194.244 53.4337 196.793 53.832V40.7109ZM187.805 52.9375C188.305 52.9598 188.795 52.9857 189.276 53.0146C188.795 52.9856 188.305 52.9598 187.805 52.9375ZM150.874 52.7949C150.18 52.7949 149.512 52.8005 148.865 52.8105L150.874 52.7959H157.778V52.7949H150.874ZM170.898 52.7959H179.185C180.152 52.7959 181.066 52.7973 181.936 52.8037C181.066 52.7974 180.152 52.7949 179.185 52.7949L170.898 52.7959ZM244.261 51.998C244.216 52.0121 244.172 52.0278 244.128 52.042C244.201 52.0185 244.275 51.9947 244.349 51.9717L244.261 51.998ZM245.314 51.6875C245.23 51.711 245.146 51.7347 245.062 51.7588C245.146 51.7347 245.23 51.711 245.314 51.6875ZM246.276 51.4355C246.203 51.4535 246.13 51.4709 246.058 51.4893C246.13 51.4709 246.203 51.4535 246.276 51.4355ZM248.194 51.0215C248.087 51.0415 247.98 51.063 247.873 51.084C247.98 51.0631 248.087 51.0415 248.194 51.0215ZM249.189 50.8516C249.111 50.8639 249.033 50.8759 248.955 50.8887C249.033 50.8759 249.111 50.8639 249.189 50.8516ZM250.296 50.6943C250.199 50.7066 250.102 50.7184 250.005 50.7314C250.102 50.7184 250.199 50.7066 250.296 50.6943ZM259.833 50.6309C259.56 50.5989 259.285 50.5699 259.008 50.5439C259.285 50.5699 259.56 50.5989 259.833 50.6309ZM251.334 50.5771C251.211 50.5893 251.089 50.602 250.967 50.6152C251.089 50.602 251.211 50.5893 251.334 50.5771ZM258.948 50.5381C258.679 50.5133 258.408 50.4917 258.136 50.4727C258.408 50.4917 258.679 50.5133 258.948 50.5381ZM252.312 50.4922C252.19 50.5013 252.067 50.5113 251.945 50.5215C252.067 50.5113 252.19 50.5013 252.312 50.4922ZM258.031 50.4658C257.796 50.45 257.559 50.4363 257.321 50.4248C257.559 50.4363 257.796 50.45 258.031 50.4658ZM253.36 50.4287C253.282 50.4325 253.205 50.4362 253.127 50.4404C253.205 50.4363 253.282 50.4325 253.36 50.4287ZM257.193 50.418C256.927 50.406 256.66 50.3972 256.391 50.3906C256.66 50.3972 256.927 50.406 257.193 50.418ZM254.468 50.3906C254.391 50.3923 254.315 50.3934 254.238 50.3955C254.315 50.3934 254.391 50.3923 254.468 50.3906ZM255.261 50.3799C255.312 50.3797 255.364 50.3799 255.416 50.3799L256.278 50.3887C255.993 50.3825 255.705 50.3789 255.416 50.3789C255.364 50.3789 255.312 50.3797 255.261 50.3799ZM181.974 41.7373L181.973 41.7383C182.78 41.7323 183.541 41.7212 184.266 41.708C183.541 41.7211 182.781 41.7314 181.974 41.7373ZM249.691 39.7441C249.415 39.7694 249.139 39.7969 248.865 39.8262C249.139 39.797 249.415 39.7694 249.691 39.7441ZM251.181 39.627C250.803 39.6515 250.427 39.6802 250.054 39.7119C250.427 39.6802 250.803 39.6515 251.181 39.627ZM59.4697 5.39551C59.5614 5.04058 59.6499 4.691 59.7314 4.34277L59.8994 3.59668H59.8984C59.7691 4.19173 59.627 4.7865 59.4697 5.39551ZM57.9551 10.3174C58.0564 10.0263 58.1545 9.74261 58.248 9.46484C58.1546 9.74263 58.0564 10.0263 57.9551 10.3174ZM58.9707 7.19238C59.0502 6.9251 59.1255 6.66231 59.1982 6.40332C59.1256 6.66232 59.0501 6.92509 58.9707 7.19238ZM59.2246 6.30859C59.3077 6.01073 59.3868 5.71768 59.4619 5.42773C59.3868 5.71769 59.3076 6.01072 59.2246 6.30859Z" fill="white"/>
</svg>
