<svg width="1000" height="247" viewBox="0 0 1000 247" fill="none" xmlns="http://www.w3.org/2000/svg">
<path d="M877.221 94.2825C889.154 94.2825 899.615 98.1365 907.565 105.256C915.256 112.144 920.394 121.904 922.372 133.663L922.555 134.809L922.569 134.91L922.579 135.014C922.745 136.832 923.444 143.67 923.791 148.365L924.078 152.229H851.353C852 160.387 853.512 165.177 856.582 169.627L857.313 170.642L857.344 170.684C862.129 177.263 869.458 180.942 878.775 180.942C885.159 180.942 890.309 179.373 894.365 176.491C898.425 173.607 901.66 169.214 903.879 163.113L905.147 159.623L924.168 167.23L922.62 170.656C919.187 178.243 916.709 181.726 912.391 186.044L912.363 186.073C903.516 194.73 892.055 199.181 878.603 199.181C864.168 199.181 852.1 194.098 843.673 184.77C835.283 175.482 830.814 162.334 830.814 146.732C830.814 131.303 835.24 118.183 843.401 108.866C851.602 99.504 863.321 94.2827 877.221 94.2825ZM659.668 96.0315C671.507 92.9142 682.045 93.1135 690.528 97.4133C696.226 100.145 699.932 103.674 704.02 110.285L704.847 111.656L706.893 115.121L687.495 123.797L685.937 120.774C684.868 118.7 684.123 117.477 683.395 116.595C682.81 115.887 682.177 115.326 681.241 114.739L680.82 114.484L680.753 114.446L680.692 114.406C676.862 111.953 671.402 111.269 664.514 113.083C658.971 114.543 654.882 117.127 652.471 120.042C650.111 122.897 649.335 126.053 650.165 129.208C650.821 131.698 652.642 133.579 655.643 134.32L655.669 134.324L655.696 134.332C659.036 135.21 662.663 135.499 670.832 135.186L674.624 135.015L674.653 135.013H674.682C690.745 134.459 697.552 134.894 703.964 137.306L705.245 137.815L705.286 137.833L705.325 137.85C712.671 141.141 717.86 147.66 719.916 155.468C722.407 164.927 720.384 173.806 714.485 181.057C708.68 188.192 699.322 193.53 687.417 196.665C672.164 200.682 658.313 199.644 648.662 192.376L647.742 191.653L647.731 191.645L647.721 191.636C643.796 188.376 641.619 185.399 638.042 178.802L636.205 175.41L656.005 166.41L657.525 169.601C658.876 172.439 659.951 174.247 661.055 175.561C662.104 176.809 663.273 177.72 664.974 178.596L664.994 178.606L665.01 178.615C669.073 180.763 675.242 181.185 683.317 179.059C690.144 177.261 694.931 174.438 697.688 171.292C700.343 168.262 701.208 164.864 700.24 161.185C699.315 157.676 697.631 155.776 695.25 154.887L694.764 154.722L694.75 154.717C691.29 153.642 688.584 153.361 679.197 153.812L674.744 154.051L674.725 154.052L674.709 154.053C661.395 154.694 654.601 154.318 647.731 152.139L646.354 151.679L646.331 151.672C638.267 148.787 632.658 142.485 630.436 134.047C628.586 127.023 629.799 119.693 633.746 113.192C638.734 104.916 647.922 99.1246 659.668 96.0315ZM751.097 62.5481C750.099 68.7042 749.762 72.9955 749.762 81.6526V107.758C750.673 106.838 751.678 105.924 752.84 104.955C760.933 98.0071 769.707 94.8001 781.037 94.8C791.84 94.8003 800.91 97.9996 807.285 104.324C813.663 110.654 816.913 119.688 816.913 130.505V173.834C816.913 180.656 817.171 185.218 817.798 190.413L818.089 192.687L818.641 196.765H794.808L795.433 192.629C796.261 187.165 796.601 182.177 796.601 173.662V132.922C796.601 125.959 794.88 121.166 792.139 118.14C789.449 115.171 785.306 113.386 779.311 113.386C770.891 113.386 763.933 116.905 757.784 124.632C753.354 130.333 751.359 134.456 749.936 140.912V173.662L749.952 176.349C750.017 181.526 750.281 185.621 750.821 190.309L751.115 192.711L751.634 196.765H728.052L728.621 192.673C729.459 186.645 729.796 182.151 729.796 173.662V81.4788C729.796 72.9969 729.459 68.669 728.62 62.4534L728.068 58.3762H751.775L751.097 62.5481ZM959.309 62.468C958.472 68.496 958.136 72.99 958.136 81.4788V173.834L958.152 176.552C958.227 182.604 958.576 186.799 959.317 192.722L959.822 196.765H936.08L936.65 192.673C937.486 186.651 937.825 181.467 937.825 173.834V81.3069C937.825 74.0321 937.566 69.6817 936.941 64.6682L936.65 62.468L936.08 58.3762H959.878L959.309 62.468ZM999.431 62.468C998.594 68.496 998.258 72.99 998.258 81.4788V173.834L998.274 176.552C998.349 182.604 998.698 186.799 999.439 192.722L999.944 196.765H976.203L976.772 192.673C977.608 186.651 977.947 181.467 977.947 173.834V81.3069C977.947 74.0321 977.688 69.6817 977.063 64.6682L976.772 62.468L976.203 58.3762H1000L999.431 62.468ZM877.34 195.573L878.589 195.584C877.75 195.584 876.919 195.567 876.099 195.531C876.51 195.549 876.924 195.563 877.34 195.573ZM700.645 187.693C696.595 189.92 691.861 191.774 686.501 193.186C685.573 193.43 684.653 193.653 683.743 193.857C684.187 193.757 684.634 193.655 685.083 193.546L686.501 193.187C692.219 191.681 697.223 189.671 701.446 187.242L700.645 187.693ZM814.094 189.694C814.221 190.822 814.364 191.971 814.526 193.168H814.527C814.365 191.971 814.221 190.822 814.094 189.693V189.694ZM647.252 186.274C648.093 187.187 648.987 188.014 650.018 188.87C650.541 189.299 651.083 189.704 651.641 190.09C651.084 189.704 650.542 189.298 650.019 188.869C648.841 187.891 647.841 186.95 646.896 185.876L647.252 186.274ZM705.862 184.339C704.729 185.192 703.517 186.007 702.228 186.782L702.992 186.313C703.998 185.68 704.955 185.022 705.862 184.339ZM644.807 183.164C645.04 183.506 645.272 183.832 645.502 184.144C645.272 183.832 645.04 183.506 644.807 183.164ZM909.587 183.749C909.27 184.055 908.949 184.354 908.625 184.649C908.777 184.511 908.93 184.375 909.08 184.236L909.587 183.749ZM954.653 74.2063C954.575 76.343 954.539 78.7064 954.539 81.4797V173.834C954.539 174.74 954.544 175.604 954.554 176.434L954.54 173.834V81.4788C954.54 78.7059 954.576 76.3428 954.653 74.2063ZM994.775 74.2063C994.697 76.343 994.661 78.7064 994.661 81.4797V173.834C994.661 174.74 994.666 175.604 994.676 176.434L994.662 173.834V81.4788C994.662 78.7059 994.698 76.3428 994.775 74.2063ZM746.805 138.51C746.642 139.158 746.486 139.826 746.338 140.518V173.662C746.338 174.612 746.344 175.523 746.355 176.405L746.339 173.662V140.517C746.487 139.825 746.643 139.158 746.805 138.51ZM902.044 174.028C901.927 174.178 901.808 174.328 901.689 174.476L902.044 174.029C902.162 173.878 902.278 173.725 902.393 173.571L902.044 174.028ZM654.278 171.148C654.436 171.481 654.594 171.802 654.749 172.115C654.594 171.802 654.437 171.48 654.279 171.148H654.278ZM919.342 169.174C918.975 169.986 918.621 170.746 918.275 171.461C918.621 170.746 918.976 169.986 919.343 169.174L907.258 164.34L919.342 169.174ZM903.718 171.645C903.612 171.811 903.506 171.977 903.398 172.141L903.719 171.645C903.825 171.478 903.929 171.31 904.033 171.14L903.718 171.645ZM906.79 165.567C906.71 165.768 906.629 165.969 906.546 166.167L906.791 165.568C906.872 165.366 906.95 165.163 907.028 164.958L906.79 165.567ZM695.273 151.118C695.453 151.171 695.633 151.226 695.816 151.282C696.453 151.477 697.054 151.716 697.62 151.998L697.277 151.834C697.045 151.728 696.807 151.629 696.564 151.537C696.442 151.491 696.319 151.447 696.195 151.405C696.07 151.362 695.944 151.321 695.817 151.282C695.452 151.169 695.094 151.063 694.737 150.966L695.273 151.118ZM660.697 150.656C660.867 150.664 661.039 150.669 661.213 150.675C660.914 150.664 660.62 150.652 660.33 150.638C660.452 150.644 660.574 150.651 660.697 150.656ZM656.105 150.288C656.316 150.314 656.528 150.34 656.744 150.364C656.808 150.371 656.873 150.375 656.938 150.382C656.656 150.352 656.379 150.322 656.105 150.288ZM653.433 149.875C653.971 149.976 654.52 150.068 655.084 150.151C654.52 150.068 653.971 149.976 653.433 149.875ZM648.448 148.591C650.04 149.112 651.627 149.53 653.323 149.854C651.627 149.53 650.04 149.112 648.448 148.591ZM834.422 148.124C834.425 148.251 834.429 148.378 834.432 148.505C834.428 148.314 834.423 148.121 834.42 147.929C834.421 147.994 834.421 148.059 834.422 148.124ZM645.219 147.307C645.964 147.671 646.739 147.999 647.542 148.286C647.668 148.33 647.794 148.371 647.919 148.413C647.794 148.371 647.669 148.329 647.543 148.285C646.606 147.95 645.707 147.561 644.849 147.121L645.219 147.307ZM674.805 138.607C674.223 138.636 673.659 138.663 673.112 138.689C673.659 138.663 674.224 138.636 674.806 138.607C675.878 138.57 676.907 138.538 677.894 138.51L674.805 138.607ZM747.317 136.625C747.156 137.171 747.004 137.731 746.857 138.306C746.949 137.945 747.043 137.59 747.14 137.241C747.198 137.034 747.258 136.829 747.318 136.625H747.317ZM653.318 137.357C653.786 137.533 654.274 137.686 654.782 137.811C654.932 137.85 655.084 137.888 655.236 137.925L654.783 137.811C654.275 137.685 653.786 137.533 653.318 137.357ZM876.876 112.352C867.724 112.352 860.111 116.928 855.534 125.472L855.518 125.501L855.5 125.531C853.909 128.374 853.076 130.57 852.337 134.16H902.255C901.05 127.401 898.756 122.992 894.745 119.106C890.135 114.645 884.331 112.352 876.876 112.352ZM800.198 132.922L800.193 132.223C800.192 132.152 800.189 132.082 800.188 132.012C800.194 132.312 800.198 132.616 800.198 132.922ZM800.185 131.912C800.178 131.628 800.17 131.346 800.158 131.067C800.17 131.346 800.178 131.628 800.185 131.912ZM633.363 130.301C633.353 130.224 633.345 130.147 633.336 130.071C633.345 130.147 633.353 130.224 633.363 130.301ZM750.954 128.2C750.52 128.937 750.12 129.67 749.748 130.409C750.12 129.67 750.52 128.937 750.954 128.2ZM751.464 127.359C751.317 127.596 751.174 127.833 751.034 128.069C751.174 127.833 751.317 127.596 751.464 127.36V127.359ZM754.97 122.392C754.668 122.78 754.376 123.164 754.094 123.541C754.376 123.164 754.668 122.781 754.97 122.393C755 122.355 755.031 122.318 755.061 122.281C755.031 122.318 755 122.354 754.97 122.392ZM852.86 122.879C852.775 123.026 852.692 123.174 852.61 123.323C852.692 123.175 852.775 123.027 852.86 122.88V122.879ZM689.133 119.125C688.86 118.595 688.599 118.103 688.347 117.645L689.133 119.126L701.749 113.484L701.748 113.482L689.133 119.125ZM758.635 118.33C758.674 118.293 758.713 118.256 758.752 118.219C758.713 118.256 758.674 118.293 758.635 118.33ZM760.949 116.276C760.911 116.306 760.874 116.338 760.836 116.368C760.919 116.301 761.002 116.235 761.084 116.168L760.949 116.276ZM651.562 115.8C651.565 115.797 651.569 115.794 651.573 115.791C651.708 115.668 651.846 115.545 651.987 115.423C651.843 115.548 651.701 115.673 651.562 115.8ZM653.414 114.285C654.011 113.848 654.641 113.429 655.302 113.031C654.641 113.429 654.011 113.848 653.414 114.285ZM860.297 114.233C860.182 114.322 860.069 114.415 859.954 114.506C860.084 114.403 860.212 114.299 860.343 114.198L860.297 114.233ZM862.568 112.668C862.508 112.705 862.449 112.742 862.389 112.78C862.449 112.742 862.508 112.705 862.568 112.668ZM656.792 112.195C656.619 112.285 656.448 112.377 656.279 112.47C656.448 112.377 656.619 112.285 656.792 112.195ZM864.873 111.408C864.778 111.455 864.682 111.502 864.587 111.549C864.682 111.502 864.778 111.455 864.873 111.408ZM658.774 111.256C658.607 111.328 658.442 111.402 658.279 111.476C658.606 111.328 658.939 111.184 659.278 111.045L658.774 111.256ZM769.932 111.266C769.759 111.324 769.587 111.387 769.415 111.448C769.852 111.292 770.293 111.143 770.738 111.009L769.932 111.266ZM661.919 110.09C661.801 110.128 661.682 110.167 661.565 110.205C661.863 110.108 662.165 110.012 662.471 109.921L661.919 110.09ZM869.012 109.833C868.9 109.865 868.789 109.897 868.678 109.931C868.789 109.897 868.9 109.865 869.012 109.833ZM664.913 109.284C664.479 109.383 664.04 109.489 663.599 109.605C663.46 109.641 663.322 109.679 663.185 109.717C663.322 109.679 663.46 109.642 663.598 109.606L664.913 109.284ZM753.729 108.942C753.498 109.15 753.275 109.358 753.057 109.565C753.477 109.167 753.919 108.766 754.391 108.357L753.729 108.942ZM874.269 108.868C874.166 108.877 874.064 108.887 873.961 108.897C874.064 108.887 874.166 108.877 874.269 108.868ZM876.713 108.757C876.768 108.757 876.822 108.756 876.876 108.756L877.61 108.762C877.367 108.757 877.122 108.755 876.876 108.755C876.822 108.755 876.768 108.757 876.713 108.757ZM769.346 99.884C769.134 99.9437 768.924 100.006 768.714 100.07C768.951 99.9981 769.189 99.9285 769.428 99.8616L769.346 99.884ZM660.583 99.509C660.234 99.601 659.888 99.6955 659.544 99.7922C659.888 99.6956 660.234 99.6019 660.583 99.51C660.753 99.4653 660.923 99.4225 661.092 99.3792L660.583 99.509ZM771.861 99.2717C771.576 99.3307 771.292 99.3932 771.011 99.4583L771.86 99.2727C772.145 99.2138 772.431 99.1576 772.72 99.1047L771.861 99.2717ZM866.852 99.0002C866.926 98.9834 867.001 98.9689 867.076 98.9524C867.001 98.9689 866.926 98.9834 866.852 99.0002ZM867.947 98.7678C867.907 98.7757 867.868 98.7843 867.828 98.7922C867.937 98.7702 868.046 98.75 868.156 98.7288C868.086 98.7423 868.016 98.754 867.947 98.7678ZM781.914 98.4045C782.407 98.4131 782.895 98.4294 783.377 98.4524C782.915 98.4304 782.448 98.4143 781.977 98.4055L781.914 98.4045ZM873.639 98.0051C872.466 98.0892 871.312 98.2149 870.181 98.3811C870.161 98.384 870.142 98.387 870.122 98.3899C871.281 98.2181 872.462 98.0887 873.664 98.0032C873.656 98.0038 873.647 98.0045 873.639 98.0051ZM874.82 97.9348C874.766 97.9373 874.713 97.9409 874.66 97.9436C874.792 97.9369 874.926 97.9317 875.059 97.926C874.979 97.9294 874.899 97.931 874.82 97.9348ZM995.565 64.2893C995.504 64.7755 995.448 65.2559 995.394 65.7336C995.448 65.2559 995.504 64.7755 995.565 64.2893ZM747.361 63.1497C747.339 63.2916 747.318 63.433 747.297 63.5735C747.376 63.0513 747.459 62.519 747.547 61.9729L747.361 63.1497ZM652.247 115.201C652.16 115.275 652.073 115.349 651.987 115.423C652.073 115.349 652.16 115.275 652.247 115.201ZM655.683 112.806C655.555 112.88 655.428 112.955 655.302 113.031C655.428 112.955 655.555 112.88 655.683 112.806ZM653.392 114.303C653.398 114.298 653.404 114.294 653.411 114.289C653.412 114.288 653.413 114.286 653.414 114.285C653.407 114.291 653.4 114.297 653.392 114.303Z" fill="#2CF87A"/>
<path d="M573.349 94.2823C588.258 94.2824 600.74 99.3363 609.479 108.62C618.196 117.881 622.864 131.001 622.864 146.56C622.864 162.045 618.145 175.197 609.444 184.511C600.72 193.849 588.287 199.009 573.521 199.009C558.543 199.009 545.977 194.01 537.167 184.75C528.376 175.51 523.662 162.381 523.662 146.732C523.662 131.083 528.375 117.918 537.135 108.638C545.917 99.3351 558.441 94.2824 573.349 94.2823ZM493.939 74.9572C493.115 80.2278 492.773 86.2401 492.773 93.5636V96.5265H497.463C505.308 96.5265 508.749 96.3578 514.562 95.5275L518.667 94.9406V116.408L514.515 115.761C509.923 115.043 506.211 114.822 500.193 114.777L497.463 114.769H492.773V171.246L492.782 172.131C492.855 175.784 493.383 177.094 493.789 177.645L493.964 177.853C494.993 178.881 496.892 179.733 499.88 179.733C503.525 179.732 506.335 178.987 511.653 175.765L515.574 173.389L521.732 192.985L518.693 194.246C511.189 197.358 505.369 198.491 497.808 198.491C489.995 198.491 483.192 196.614 478.769 192.492L478.347 192.087C473.865 187.605 472.462 181.378 472.461 172.972V114.769H469.153C463.474 114.769 459.656 115.099 454.049 115.778L450.019 116.266V94.7911L454.248 95.547C458.771 96.3547 461.979 96.5265 469.153 96.5265H472.461V93.5636C472.461 87.1858 472.161 81.1923 471.443 75.9738L471.293 74.9415L470.667 70.8058H494.587L493.939 74.9572ZM399.132 61.2316C399.588 63.397 400.101 65.0084 402.168 70.1681L404.811 76.6632L404.815 76.674L443.47 171.934C447.253 181.011 449.382 185.823 451.502 189.738L452.416 191.371L455.528 196.765H428.635L428.008 193.947C426.67 187.926 424.826 182.056 422.814 176.858V176.857L414.764 156.888H359.374L351.304 176.905C348.781 183.299 347.3 188.093 346.144 193.874L345.566 196.765H318.279L321.589 191.305C324.888 185.862 326.009 183.488 330.65 171.973L330.654 171.964L369.322 76.674C372.595 68.5778 373.871 64.8534 374.664 61.2081L375.28 58.3761H398.532L399.132 61.2316ZM494.376 194.757V194.756V194.757ZM488.335 193.679C488.449 193.712 488.563 193.743 488.678 193.775C488.491 193.723 488.305 193.669 488.122 193.613C488.193 193.635 488.264 193.658 488.335 193.679ZM486.811 193.174C487.132 193.293 487.46 193.407 487.795 193.514C487.864 193.536 487.934 193.556 488.003 193.577C487.595 193.452 487.198 193.317 486.811 193.174ZM325.865 191.153C325.492 191.792 325.095 192.456 324.664 193.168H324.666C325.097 192.456 325.492 191.793 325.865 191.154V191.153ZM342.848 192.047C342.77 192.417 342.693 192.791 342.618 193.168L343.088 190.946L342.848 192.047ZM397.595 68.3615C398.434 70.5605 399.645 73.5428 401.483 78.0275L440.151 173.317C444.466 183.674 446.71 188.68 449.299 193.168H449.3C446.711 188.68 444.467 183.673 440.152 173.316L401.484 78.0265C399.646 73.5423 398.434 70.5603 397.595 68.3615ZM484.814 192.315C484.844 192.33 484.875 192.344 484.905 192.359C484.721 192.268 484.54 192.176 484.362 192.08L484.814 192.315ZM480.195 188.793C480.416 189.051 480.648 189.302 480.89 189.544C481.268 189.922 481.675 190.28 482.11 190.619C481.675 190.279 481.269 189.921 480.891 189.543C480.649 189.301 480.417 189.051 480.195 188.793ZM517.314 190.924H517.316L513.517 178.841L517.314 190.924ZM328.329 186.575C328.025 187.196 327.725 187.787 327.417 188.369L327.902 187.434C328.044 187.153 328.186 186.867 328.329 186.575ZM344.775 184.559C344.743 184.664 344.712 184.77 344.68 184.875C344.725 184.726 344.77 184.576 344.816 184.426L344.775 184.559ZM574.255 184.182C573.955 184.188 573.653 184.192 573.349 184.192C573.046 184.192 572.744 184.188 572.444 184.182C572.744 184.189 573.046 184.193 573.349 184.193C573.653 184.193 573.955 184.189 574.255 184.182ZM573.695 112.352C564.309 112.352 557.062 115.593 552.119 121.208C547.127 126.878 544.146 135.357 544.146 146.388L544.155 147.422C544.334 158.04 547.285 166.217 552.088 171.733C556.996 177.367 564.155 180.595 573.349 180.595C582.542 180.595 589.656 177.368 594.52 171.759C599.437 166.088 602.379 157.601 602.379 146.56C602.379 135.518 599.436 126.976 594.546 121.255C589.711 115.598 582.682 112.352 573.695 112.352ZM489.185 172.155C489.189 172.343 489.194 172.528 489.2 172.708C489.194 172.528 489.19 172.343 489.186 172.155C489.181 171.864 489.177 171.563 489.177 171.253L489.185 172.155ZM527.532 152.972C527.55 153.174 527.569 153.375 527.589 153.576C527.569 153.375 527.55 153.174 527.532 152.972ZM527.449 151.954C527.466 152.188 527.485 152.422 527.504 152.654C527.485 152.422 527.466 152.188 527.449 151.954ZM527.27 148.124C527.293 149.359 527.349 150.575 527.434 151.771C527.343 150.493 527.287 149.192 527.267 147.868L527.27 148.124ZM386.995 84.5109C386.851 84.9292 386.695 85.3529 386.538 85.714L366.341 137.784H407.781L387.43 85.7228L387.413 85.6769C387.262 85.2763 387.15 84.9611 386.995 84.5109ZM530.117 127.63C529.867 128.39 529.633 129.163 529.416 129.947V129.948C529.633 129.164 529.867 128.391 530.117 127.631V127.63ZM545.571 124.33C545.463 124.525 545.358 124.721 545.253 124.919C545.358 124.721 545.463 124.525 545.571 124.33ZM546.041 123.506C545.909 123.73 545.779 123.956 545.652 124.184C545.779 123.956 545.909 123.73 546.041 123.506ZM547.771 120.889C547.722 120.956 547.671 121.022 547.623 121.089C547.671 121.022 547.722 120.956 547.771 120.889ZM613.758 121.031C613.674 120.861 613.587 120.693 613.5 120.525C613.587 120.693 613.674 120.861 613.758 121.031ZM548.305 120.183C548.259 120.242 548.212 120.301 548.167 120.36C548.212 120.301 548.259 120.242 548.305 120.183ZM613.383 120.298C613.344 120.222 613.306 120.146 613.266 120.07C613.237 120.015 613.205 119.96 613.175 119.904C613.245 120.035 613.315 120.166 613.383 120.298ZM548.851 119.501C548.806 119.555 548.763 119.61 548.718 119.664C548.763 119.61 548.806 119.555 548.851 119.501ZM550.146 118.041C550.092 118.098 550.037 118.155 549.984 118.212C550.037 118.155 550.092 118.098 550.146 118.041ZM550.749 117.425C550.698 117.475 550.647 117.526 550.597 117.576C550.647 117.526 550.698 117.475 550.749 117.425ZM553.507 115.019C553.462 115.053 553.417 115.088 553.373 115.122C553.417 115.088 553.462 115.053 553.507 115.019ZM515.072 99.087C513.955 99.2466 512.921 99.3828 511.926 99.4982C512.92 99.383 513.954 99.2475 515.071 99.088V112.207C512.522 111.809 510.23 111.558 507.738 111.402C510.23 111.558 512.523 111.81 515.072 112.208V99.087ZM506.083 111.314C506.584 111.336 507.074 111.362 507.555 111.391C507.074 111.362 506.584 111.336 506.083 111.314ZM469.153 111.171C468.459 111.171 467.791 111.177 467.144 111.187L469.153 111.172H476.057V111.171H469.153ZM489.177 111.172H497.463C498.431 111.172 499.345 111.173 500.214 111.18C499.345 111.173 498.431 111.171 497.463 111.171L489.177 111.172ZM562.54 110.374C562.495 110.388 562.451 110.404 562.407 110.418C562.48 110.395 562.554 110.371 562.627 110.348L562.54 110.374ZM563.593 110.064C563.509 110.087 563.424 110.111 563.34 110.135C563.424 110.111 563.509 110.087 563.593 110.064ZM564.555 109.812C564.482 109.83 564.409 109.847 564.336 109.865C564.409 109.847 564.482 109.83 564.555 109.812ZM566.473 109.398C566.366 109.418 566.259 109.439 566.152 109.46C566.259 109.439 566.366 109.418 566.473 109.398ZM567.468 109.228C567.39 109.24 567.312 109.252 567.234 109.265C567.312 109.252 567.39 109.24 567.468 109.228ZM568.575 109.07C568.478 109.083 568.38 109.095 568.284 109.108C568.38 109.095 568.478 109.083 568.575 109.07ZM578.112 109.007C577.838 108.975 577.563 108.946 577.287 108.92C577.563 108.946 577.838 108.975 578.112 109.007ZM569.613 108.953C569.49 108.965 569.368 108.978 569.246 108.991C569.368 108.978 569.49 108.965 569.613 108.953ZM577.227 108.914C576.958 108.889 576.687 108.868 576.415 108.849C576.687 108.868 576.958 108.889 577.227 108.914ZM570.591 108.868C570.469 108.877 570.346 108.887 570.224 108.898C570.346 108.887 570.469 108.877 570.591 108.868ZM576.31 108.842C576.075 108.826 575.838 108.812 575.6 108.801C575.838 108.812 576.075 108.826 576.31 108.842ZM571.639 108.805C571.561 108.809 571.483 108.812 571.406 108.817C571.483 108.812 571.561 108.809 571.639 108.805ZM575.472 108.794C575.206 108.782 574.938 108.773 574.669 108.767C574.938 108.773 575.206 108.782 575.472 108.794ZM572.747 108.767C572.67 108.768 572.593 108.77 572.517 108.772C572.593 108.77 572.67 108.768 572.747 108.767ZM573.54 108.756C573.591 108.756 573.643 108.756 573.695 108.756L574.557 108.765C574.271 108.759 573.984 108.755 573.695 108.755C573.643 108.755 573.591 108.756 573.54 108.756ZM500.252 100.113L500.251 100.114C501.059 100.108 501.82 100.097 502.544 100.084C501.82 100.097 501.06 100.107 500.252 100.113ZM567.97 98.1202C567.694 98.1455 567.418 98.173 567.144 98.2023C567.418 98.1731 567.694 98.1455 567.97 98.1202ZM569.459 98.0031C569.082 98.0276 568.706 98.0563 568.333 98.088C568.706 98.0563 569.082 98.0276 569.459 98.0031ZM377.749 63.7716C377.84 63.4167 377.929 63.0671 378.01 62.7189L378.178 61.9728H378.177C378.048 62.5678 377.906 63.1626 377.749 63.7716ZM376.234 68.6935C376.335 68.4024 376.433 68.1187 376.527 67.8409C376.433 68.1187 376.335 68.4024 376.234 68.6935ZM377.25 65.5685C377.329 65.3012 377.404 65.0384 377.477 64.7794C377.404 65.0384 377.329 65.3012 377.25 65.5685ZM377.503 64.6847C377.586 64.3868 377.666 64.0938 377.741 63.8038C377.666 64.0938 377.586 64.3868 377.503 64.6847Z" fill="white"/>
<path d="M200.396 6.36333C142.229 16.3446 61.4118 35.7628 27.1642 47.9219C20.2784 50.2811 19.916 50.2811 18.8288 46.833C17.1979 41.9331 11.7618 43.2034 11.037 48.4663C10.6746 50.644 8.1377 53.7292 5.05723 55.181C-1.46613 58.6291 -1.64733 61.1698 4.33241 62.6216L8.86252 63.7105V98.5543C8.86252 145.557 10.3122 170.783 14.4799 197.641C19.1912 228.13 18.6476 226.678 27.3454 226.678H34.7748L33.6875 218.874C33.1439 214.7 31.5131 203.812 29.8822 194.919C28.2514 185.845 26.6206 175.683 26.2581 172.234C24.6273 159.35 21.0032 63.3475 21.9092 62.2586C22.4529 61.7142 31.5131 59.355 41.8417 56.8143C51.9892 54.4551 69.566 50.2811 80.4383 47.7404C130.994 35.9443 225.945 17.9779 238.086 17.9779C242.616 17.9779 242.616 18.1594 241.348 28.3222C240.623 34.1295 240.079 78.5917 239.898 127.228V215.608L225.402 216.515C217.429 217.06 193.872 218.33 173.034 219.419C132.263 221.597 102.726 224.5 62.3178 230.489C31.8755 234.845 23.3589 237.022 23.3589 240.107C23.3589 247.729 44.9222 248.274 98.5587 242.285C131.538 238.474 168.866 235.933 209.093 234.845C261.28 233.211 260.737 233.393 260.737 221.052C260.737 217.604 259.831 215.789 258.019 215.789C256.025 215.789 255.301 213.793 255.301 208.712C255.301 198.186 251.858 120.15 250.77 109.624C250.408 104.543 249.502 80.0435 248.777 55.181C247.69 7.63368 246.421 -0.35137 239.898 0.0115863C237.905 0.0115863 220.147 2.91524 200.396 6.36333Z" fill="#2CF87A"/>
<path d="M55.7437 81.2636C55.7437 89.7312 78.9725 113.873 97.3015 124.322L107.283 130.087L102.746 132.79C89.4981 141.437 72.8023 161.075 69.3543 172.245C68.084 176.569 72.4394 183.415 76.4318 183.415C77.5207 183.415 81.3317 178.01 84.7797 171.164C88.5907 163.777 96.0312 154.049 104.198 145.941C117.082 132.79 117.445 132.61 124.523 133.871C132.145 135.132 132.689 134.771 134.504 127.205C136.137 120.539 132.326 117.476 120.712 116.215C106.012 114.413 82.4205 102.162 69.7172 89.3709C59.0102 78.9215 55.7437 76.9398 55.7437 81.2636Z" fill="white"/>
<path d="M175.766 165.4C145.809 167.628 129.469 170.413 129.469 173.755C129.469 177.839 135.461 178.396 170.138 177.839L202.637 177.282L204.453 171.898C206.087 166.7 203.908 162.987 199.369 163.73C198.461 163.73 187.749 164.658 175.766 165.4Z" fill="white"/>
</svg>
